<svg width="232" height="24" viewBox="0 0 232 24" fill="none" xmlns="http://www.w3.org/2000/svg">
<path d="M0 23.8182L10.8155 0.124756H33.7971C36.7774 0.124756 38.8032 0.476695 39.8626 1.18057C41.0501 1.98663 41.2131 3.33762 40.3516 5.2222L37.3712 11.7615C36.4049 13.8845 35.0544 15.3717 33.3197 16.2231C31.5967 17.0633 29.1053 17.4947 25.8688 17.4947H16.916L14.0287 23.8182H0ZM24.3204 5.47196H22.4227L19.3841 12.1248H21.2469C22.5391 12.1248 23.4472 11.5571 23.9711 10.4332L25.4497 7.1976C25.9619 6.05096 25.5894 5.47196 24.3204 5.47196Z" fill="#E2807B"/>
<path d="M34.9497 23.8191L45.7652 0.136963H68.4208L65.9527 5.52958H57.3259L56.15 8.1294H64.7768L62.3087 13.522H53.6819L51.4466 18.4265H60.0734L57.6053 23.8191H34.9497Z" fill="#E2807B"/>
<path d="M59.1187 23.8191L76.2675 0.136963H98.2362L93.7539 23.8304H79.2246L80.7613 18.6989H76.7448L73.6014 23.8304H59.1187V23.8191ZM79.6553 13.4653H82.6124L84.8361 5.41605L79.6553 13.4653Z" fill="#E2807B"/>
<path d="M131.684 14.1684L129.53 18.9026C128.669 20.7871 127.272 22.1381 125.351 22.9442C123.651 23.6481 121.299 24 118.319 24H103.65C100.809 24 98.8765 23.6254 97.852 22.8647C96.7344 22.0473 96.6063 20.7304 97.4329 18.9026L103.487 5.65374C104.43 3.58751 105.734 2.13434 107.41 1.28288C109.087 0.43141 111.485 0 114.617 0H129.274C132.546 0 134.641 0.408704 135.572 1.21476C136.55 2.04352 136.55 3.5194 135.572 5.66509L134.152 8.78713H119.902L120.694 7.06149C121.218 5.92621 120.868 5.34721 119.658 5.34721C118.47 5.34721 117.62 5.91485 117.108 7.06149L112.603 16.9385C112.079 18.0738 112.416 18.6528 113.592 18.6528C114.803 18.6528 115.664 18.0851 116.188 16.9385L117.446 14.1911H131.684V14.1684Z" fill="#E2807B"/>
<path d="M130.345 23.8191L141.161 0.136963H155.189L151.534 8.1521H155.12L158.787 0.136963H172.816L162 23.8191H147.971L152.651 13.5561H149.066L144.374 23.8191H130.345Z" fill="#E2807B"/>
<path d="M165.283 23.8191L176.099 0.136963H198.766L196.298 5.52958H187.671L186.483 8.1294H195.11L192.654 13.522H184.027L181.78 18.4265H190.407L187.95 23.8191H165.283Z" fill="#E2807B"/>
<path d="M191.105 23.819L201.92 0.125488H224.902C227.882 0.125488 229.908 0.477427 230.968 1.18131C232.155 1.98736 232.318 3.33835 231.457 5.22293L225.577 18.0971C224.611 20.2201 223.26 21.7073 221.549 22.5474C219.826 23.3875 217.346 23.8076 214.087 23.8076H191.105V23.819ZM207.613 18.3923H209.174C210 18.3923 210.629 18.2447 211.071 17.9382C211.409 17.6884 211.723 17.2797 211.979 16.7007L216.31 7.22104C216.822 6.08575 216.403 5.52946 215.053 5.52946H213.493L207.613 18.3923Z" fill="#E2807B"/>
</svg>
